<?xml version="1.0" standalone="no"?><!DOCTYPE svg PUBLIC "-//W3C//DTD SVG 1.1//EN" "http://www.w3.org/Graphics/SVG/1.1/DTD/svg11.dtd"><svg t="1677901294093" class="icon" viewBox="0 0 1024 1024" version="1.1" xmlns="http://www.w3.org/2000/svg" p-id="5083" xmlns:xlink="http://www.w3.org/1999/xlink" width="200" height="200"><path d="M484.486737 164.702316a19.7632 19.7632 0 0 1-5.109221-7.297348c-1.056337-2.694737-2.274358-7.690779-3.654063-14.998905-8.547705 2.446821-6.316463-13.743158-6.144-26.376084h6.144c-4.473263-21.848926-7.696168-43.277474 18.917052-54.665432 15.295326-2.042611 26.640168-2.581558 34.029137-1.616842 8.240505 1.077895 16.152253 7.011705 23.735242 17.801432 1.810863 12.826947 3.718737 25.653895 0 38.480842 4.149895-0.964716 6.230232-0.646737 6.230232 0.937768 0 1.174905 0.468884 13.403621-2.118063 22.511832-0.592842 2.112674-2.829474 3.088168-6.688337 2.926484-0.856926 7.976421-1.368926 16.071411-7.663832 22.290863v31.000253c5.243958 4.645726 23.913095 16.960674 41.714527 17.30021 20.447663 6.063158 43.385263 4.899032 49.550821 52.455748 2.074947 15.656421 3.858863 28.025263 5.357136 37.106526 1.498274 9.081263 1.498274 30.633768 0 64.662905-1.967158 10.3424 0 13.457516 2.392927 24.414316 0.856926 38.879663-1.713853 77.964126-4.963706 117.091705l4.963706 54.164211-14.616253 28.634274-20.140463 10.552589v-6.645221h-4.634947c0.388042-4.872084 3.778021-9.000421 10.164547-12.3904-5.906863-0.808421-7.750063-2.328253-5.5296-4.559495 3.325305-3.346863 11.970021-8.606989 19.488337-16.707368 2.657011-2.8672 1.088674-8.256674 0.652126-10.337011-0.797642-3.810358-4.440926-2.888758-6.607495 0-3.352253 4.462484-2.856421 5.109221-4.742736 11.458021-1.897095 6.343411-6.144 6.682947-7.184169 5.082274-1.034779-1.595284-4.166063-4.581053-2.603116-9.92741 1.562947-5.351747 1.994105-7.890189 0.997053-11.4688-0.997053-3.584-4.494821-15.532463 1.034779-21.288421 5.534989-5.745179 5.615832-17.046905 4.494821-21.71419-1.121011-4.667284-15.483958-52.908463-12.826947-74.633431 2.6624-21.724968 0-40.415663 0-43.988885 0-2.597726-3.411537-11.743663-5.281685-21.638737-0.706021-3.734905-1.191074-7.572211-1.191073-11.210105 0-8.844126-2.926484-22.393263-8.774063-40.636631-0.835368 30.127158-3.001937 46.953095-6.499706 50.467031-5.254737 5.281684 0.964716 48.661558 3.729516 60.092632 2.770189 11.441853 18.011621 90.462316 14.777937 131.934316-3.233684 41.466611-7.194947 120.427789-5.217011 131.761852 1.983326 11.334063 8.461474 40.237811 8.461474 50.068211 0 4.171453 1.859368 31.426021-3.007326 56.648758-1.848589 9.609432-5.928421 21.563284-12.244884 35.866947-6.144 19.041011-9.210611 35.554358-9.210611 49.540042 0 13.985684 0.905432 24.279579 2.710905 30.887074 8.666274 23.304084 13.096421 37.661642 13.290442 43.072673 0.167074 4.731958-5.195453 6.672168-6.790736 7.329685-6.499705 2.651621-31.151158 5.890695-36.432843 2.058779-5.281684-3.826526-9.135158-17.434947-7.211115-30.865516 1.929432-13.430568 6.656-16.125305 1.929431-23.799916-4.726568-7.674611-1.417432-17.704421 1.929432-25.589221 3.352253-7.8848 3.352253-38.313768 3.352252-52.6336 0-14.314442-11.069979-49.335242-7.211115-68.047495 3.858863-18.712253 7.211116-34.390232 7.211115-43.994273s-10.5472-20.011116-13.597642-42.997221c-3.055832-22.980716-1.2288-68.7104-5.173894-81.747537-3.950484-13.042526-9.313011-19.698526-9.313011-28.628885 0-5.955368-0.943158-14.174316-2.834863-24.646063h-4.958316a3008.005389 3008.005389 0 0 0-11.086147 53.274948c-5.842189 29.302568 0.010779 36.540632-2.915706 59.144084s-18.189474 56.4224-18.189473 65.600674c0 9.178274 8.380632 35.742989 8.380631 56.028968 0 20.285979-8.720168 39.262316-8.720168 53.6576 0 14.389895 0.129347 51.2 2.791747 54.9888 2.657011 3.7888 7.766232 18.017011 2.657011 27.793516-5.109221 9.781895 3.271411 31.900295 3.27141 37.483789 0 5.588884 2.678568 23.395705-16.432505 17.197811-19.111074-6.197895-32.315284 1.239579-34.136926-4.284632-1.821642-5.518821 9.075874-36.648421 11.802947-46.026105 2.721684-9.388463 4.564884-9.668716 4.564884-18.017011 0-8.353684-2.899537-50.488589-9.630989-66.775579-6.736842-16.292379-15.144421-37.408337-15.144421-68.052884 0-30.639158 8.407579-66.759411 8.407579-78.977347 0-12.212547-5.723621-121.861389-5.723621-145.575074 0-23.713684 12.956295-91.890526 17.526568-122.653642 4.564884-30.763116 2.570779-51.162274 0-56.050526-1.719242-3.266021-3.406147-17.321768-5.066105-42.178021-6.251789 6.731453-9.377684 17.143916-9.377684 31.242779 0 21.148295-5.766737 33.926737-5.766737 45.56261 0 11.630484-0.086232 53.921684-8.450695 82.933221-8.364463 29.011537-8.784842 41.984-4.392421 46.354863 4.392421 4.376253 4.392421 23.896926 4.392421 30.5152 0 6.612884 1.983326 21.627958-4.392421 16.545685-6.370358-5.087663-3.600168-16.545684-8.677053-16.545685-5.071495 0-7.588379 1.767747-6.327242 6.612885 1.255747 4.845137 17.354105 15.866611 19.396716 20.426105 1.363537 3.045053-0.1024 3.734905-4.392421 2.069558 8.337516 7.318905 11.247832 12.277221 8.730947 14.885726-2.511495 2.608505-3.955874 2.608505-4.338526 0 2.926484 4.430147 2.926484 6.645221 0 6.645221-4.392421 0-19.094905-5.082274-22.026779-10.552589-1.956379-3.648674-6.327242-12.298779-13.1072-25.944927 3.201347-35.160926 4.796632-58.130863 4.796632-68.904421 0-16.168421-7.340463-89.519158-7.340463-98.923789 0-9.404632 9.965137-14.993516 7.340463-35.813053-2.619284-20.814147-1.385095-59.591411 2.317473-72.563873 3.707958-12.972463-2.4576-46.651284 14.9504-60.378274 17.408-13.732379 64.231747-18.992505 72.116548-27.249179 7.8848-8.251284 8.871074-15.139032 8.380631-17.941558-0.334147-1.864758-1.422821-8.235116-3.27141-19.111074z" fill="#8a8a8a" p-id="5084"></path></svg>