<?xml version="1.0" standalone="no"?><!DOCTYPE svg PUBLIC "-//W3C//DTD SVG 1.1//EN" "http://www.w3.org/Graphics/SVG/1.1/DTD/svg11.dtd"><svg t="1677901898320" class="icon" viewBox="0 0 1024 1024" version="1.1" xmlns="http://www.w3.org/2000/svg" p-id="11729" width="16" height="16" xmlns:xlink="http://www.w3.org/1999/xlink"><path d="M847.854371 623.409582h-224.336414v224.444789c0 61.990545-50.249912 112.168207-112.276583 112.168207-61.918295 0-112.168207-50.177662-112.168207-112.168207v-224.444789H174.592253c-61.918295 0-112.168207-50.177662-112.168207-112.168208 0-62.02667 50.249912-112.168207 112.168207-112.168207h224.444789V174.628378c0-62.02667 50.249912-112.204332 112.168207-112.204332 61.990545 0 112.276582 50.177662 112.276583 112.204332v224.444789h224.372539c61.990545 0 112.276582 50.177662 112.276582 112.168207s-50.249912 112.168207-112.276582 112.168208zM455.175333 847.890496c0 30.959148 25.070768 56.138291 56.029916 56.138291 31.031398 0 56.138291-25.179143 56.138292-56.138291v-280.51083h280.51083c31.031398 0 56.138291-25.179143 56.138291-56.138292s-25.106893-56.138291-56.138291-56.138291h-280.51083V174.628378c0-30.959148-25.070768-56.138291-56.138292-56.138291-30.959148 0-56.029916 25.179143-56.029916 56.138291v280.51083H174.592253c-30.959148 0-56.138291 25.179143-56.138291 56.138291s25.179143 56.138291 56.138291 56.138292H455.175333v280.474705z" fill="#231815" p-id="11730"></path></svg>